<?xml version="1.0" standalone="no"?><!DOCTYPE svg PUBLIC "-//W3C//DTD SVG 1.1//EN" "http://www.w3.org/Graphics/SVG/1.1/DTD/svg11.dtd"><svg t="1481546115903" class="icon" style="" viewBox="0 0 1024 1024" version="1.1" xmlns="http://www.w3.org/2000/svg" p-id="1209" xmlns:xlink="http://www.w3.org/1999/xlink" width="200" height="200"><defs><style type="text/css"></style></defs><path d="M940.350346 795.875372c0 78.651314-63.771419 142.42171-142.42171 142.42171L228.226446 938.297083c-78.655408 0-142.42785-63.772442-142.42785-142.42171L85.798597 226.174206c0-78.657454 63.772442-142.43092 142.42785-142.43092l569.70219 0c78.658478 0 142.431943 63.771419 142.431943 142.43092L940.350346 795.875372 940.350346 795.875372 940.350346 795.875372zM415.621441 543.356149l125.592416 0c0-29.528524-13.923104-46.824445-13.923104-46.824445L418.29534 496.531704c2.589988-53.492308 4.909823-122.148991 5.738701-147.648758l103.677291 0c0 0-0.561795-43.872207-12.091386-43.872207L333.378321 305.010739c0 0 10.970866-57.373709 25.593911-82.700537 0 0-54.417377-2.936889-72.981175 69.622684-18.560728 72.559573-46.402843 116.430756-49.355081 124.446313-2.953262 8.012488 16.031115 3.794419 24.043602 0 8.015557-3.797489 44.294832-16.876366 54.840002-67.496254l56.350402 0c0.760317 32.081673 2.990101 130.396839 2.287089 147.648758L258.148943 496.531704c-16.449647 11.809977-21.935592 46.824445-21.935592 46.824445l132.591831 0c-5.529947 36.614919-15.239076 83.812871-28.817326 108.834754-21.512966 39.655162-32.903388 75.934436-110.525256 138.368394 0 0-12.656251 9.280364 26.576285 5.9055 39.231513-3.371794 76.356039-13.497409 102.087073-64.962547 13.377682-26.756387 27.212782-60.697407 38.005592-95.121428l-0.038886 0.12075 109.259426 125.794008c0 0 14.34266-33.746592 3.797489-70.870094l-80.993662-90.697675-27.41949 20.278859-0.031722 0.099261c7.615445-26.700105 13.09218-53.095265 14.794961-76.061326C415.541623 544.492018 415.583578 543.92613 415.621441 543.356149L415.621441 543.356149zM415.621441 543.356149M567.366494 295.730375l0 435.349249 45.77044 0 18.752086 52.405557 79.32772-52.405557 99.978039 0L811.194778 295.730375 567.366494 295.730375 567.366494 295.730375zM764.089947 684.253132l-51.967582 0-64.817238 42.817178-15.318894-42.817178-16.177448 0L615.808786 344.31286l148.280138 0L764.088924 684.253132 764.089947 684.253132zM764.089947 684.253132" p-id="1210"></path></svg>